<svg width="65" height="65" viewBox="0 0 65 65" fill="none" xmlns="http://www.w3.org/2000/svg">
<path fill-rule="evenodd" clip-rule="evenodd" d="M32.5004 0.899902C33.548 0.899902 34.5527 1.31606 35.2935 2.05683C36.0342 2.7976 36.4504 3.8023 36.4504 4.8499V8.7999C36.4504 9.84751 36.0342 10.8522 35.2935 11.593C34.5527 12.3337 33.548 12.7499 32.5004 12.7499C31.4528 12.7499 30.4481 12.3337 29.7073 11.593C28.9666 10.8522 28.5504 9.84751 28.5504 8.7999V4.8499C28.5504 3.8023 28.9666 2.7976 29.7073 2.05683C30.4481 1.31606 31.4528 0.899902 32.5004 0.899902ZM48.3004 32.4999C48.3004 36.6903 46.6358 40.7091 43.6727 43.6722C40.7096 46.6353 36.6908 48.2999 32.5004 48.2999C28.31 48.2999 24.2912 46.6353 21.3281 43.6722C18.365 40.7091 16.7004 36.6903 16.7004 32.4999C16.7004 28.3095 18.365 24.2907 21.3281 21.3276C24.2912 18.3645 28.31 16.6999 32.5004 16.6999C36.6908 16.6999 40.7096 18.3645 43.6727 21.3276C46.6358 24.2907 48.3004 28.3095 48.3004 32.4999ZM46.4676 52.0524L49.2602 54.8451C50.0052 55.5646 51.003 55.9627 52.0387 55.9537C53.0744 55.9447 54.0651 55.5293 54.7974 54.7969C55.5298 54.0646 55.9452 53.0739 55.9542 52.0382C55.9632 51.0025 55.5651 50.0047 54.8455 49.2598L52.0529 46.4671C51.3079 45.7476 50.3101 45.3494 49.2745 45.3584C48.2388 45.3674 47.2481 45.7829 46.5157 46.5152C45.7833 47.2476 45.3679 48.2383 45.3589 49.274C45.3499 50.3096 45.7481 51.3074 46.4676 52.0524ZM54.8416 10.1548C55.5821 10.8955 55.9981 11.9 55.9981 12.9474C55.9981 13.9948 55.5821 14.9993 54.8416 15.7401L52.0529 18.5327C51.6885 18.91 51.2527 19.2109 50.7707 19.4179C50.2888 19.6249 49.7705 19.7339 49.246 19.7384C48.7215 19.743 48.2014 19.6431 47.716 19.4444C47.2305 19.2458 46.7895 18.9525 46.4186 18.5817C46.0478 18.2108 45.7545 17.7698 45.5558 17.2843C45.3572 16.7989 45.2573 16.2787 45.2618 15.7543C45.2664 15.2298 45.3754 14.7115 45.5824 14.2296C45.7894 13.7476 46.0903 13.3118 46.4676 12.9474L49.2602 10.1548C50.001 9.41424 51.0055 8.99825 52.0529 8.99825C53.1003 8.99825 54.1048 9.41424 54.8455 10.1548H54.8416ZM60.1504 36.4499C61.198 36.4499 62.2027 36.0337 62.9435 35.293C63.6842 34.5522 64.1004 33.5475 64.1004 32.4999C64.1004 31.4523 63.6842 30.4476 62.9435 29.7068C62.2027 28.9661 61.198 28.5499 60.1504 28.5499H56.2004C55.1528 28.5499 54.1481 28.9661 53.4073 29.7068C52.6665 30.4476 52.2504 31.4523 52.2504 32.4999C52.2504 33.5475 52.6665 34.5522 53.4073 35.293C54.1481 36.0337 55.1528 36.4499 56.2004 36.4499H60.1504ZM32.5004 52.2499C33.548 52.2499 34.5527 52.6661 35.2935 53.4068C36.0342 54.1476 36.4504 55.1523 36.4504 56.1999V60.1499C36.4504 61.1975 36.0342 62.2022 35.2935 62.943C34.5527 63.6837 33.548 64.0999 32.5004 64.0999C31.4528 64.0999 30.4481 63.6837 29.7073 62.943C28.9666 62.2022 28.5504 61.1975 28.5504 60.1499V56.1999C28.5504 55.1523 28.9666 54.1476 29.7073 53.4068C30.4481 52.6661 31.4528 52.2499 32.5004 52.2499ZM12.9479 18.5327C13.3146 18.8997 13.7501 19.1909 14.2293 19.3896C14.7086 19.5883 15.2223 19.6907 15.7411 19.6909C16.2599 19.691 16.7737 19.589 17.2531 19.3906C17.7325 19.1923 18.1682 18.9014 18.5352 18.5347C18.9022 18.1679 19.1933 17.7325 19.392 17.2532C19.5908 16.774 19.6931 16.2603 19.6933 15.7415C19.6935 15.2226 19.5915 14.7088 19.3931 14.2294C19.1947 13.75 18.9039 13.3144 18.5371 12.9474L15.7405 10.1548C14.9956 9.43523 13.9978 9.03709 12.9621 9.04609C11.9264 9.05509 10.9357 9.47051 10.2034 10.2029C9.47099 10.9352 9.05558 11.9259 9.04658 12.9616C9.03758 13.9973 9.43572 14.9951 10.1552 15.7401L12.9479 18.5327ZM18.5332 52.0524L15.7405 54.8451C14.9956 55.5646 13.9978 55.9627 12.9621 55.9537C11.9264 55.9447 10.9357 55.5293 10.2034 54.7969C9.47099 54.0646 9.05558 53.0739 9.04658 52.0382C9.03758 51.0025 9.43572 50.0047 10.1552 49.2598L12.9479 46.4671C13.6929 45.7476 14.6906 45.3494 15.7263 45.3584C16.762 45.3674 17.7527 45.7829 18.4851 46.5152C19.2174 47.2476 19.6329 48.2383 19.6419 49.274C19.6509 50.3096 19.2527 51.3074 18.5332 52.0524ZM8.80039 36.4499C9.848 36.4499 10.8527 36.0337 11.5935 35.293C12.3342 34.5522 12.7504 33.5475 12.7504 32.4999C12.7504 31.4523 12.3342 30.4476 11.5935 29.7068C10.8527 28.9661 9.848 28.5499 8.80039 28.5499H4.85039C3.80279 28.5499 2.79809 28.9661 2.05732 29.7068C1.31655 30.4476 0.900391 31.4523 0.900391 32.4999C0.900391 33.5475 1.31655 34.5522 2.05732 35.293C2.79809 36.0337 3.80279 36.4499 4.85039 36.4499H8.80039Z" fill="#E6E6E6"/>
</svg>
